<?xml version="1.0" standalone="no"?>
<!DOCTYPE svg PUBLIC "-//W3C//DTD SVG 20010904//EN"
 "http://www.w3.org/TR/2001/REC-SVG-20010904/DTD/svg10.dtd">
<svg version="1.0" xmlns="http://www.w3.org/2000/svg"
 width="605.000000pt" height="412.000000pt" viewBox="0 0 605.000000 412.000000"
 preserveAspectRatio="xMidYMid meet">

<g transform="translate(0.000000,412.000000) scale(0.100000,-0.100000)"
fill="#000000" stroke="none">
<path d="M1742 3410 c-11 -28 -14 -363 -4 -378 6 -9 45 -12 158 -10 l149 3 3
45 c2 24 9 48 15 52 18 11 792 9 932 -2 299 -25 481 -77 654 -187 180 -115
360 -365 441 -611 88 -272 84 -690 -10 -960 -34 -99 -33 -100 73 -84 40 6 99
14 132 18 111 12 107 8 147 199 20 97 23 139 23 355 0 250 -5 298 -46 460 -34
131 -60 202 -114 315 -201 417 -506 656 -952 748 -199 42 -285 46 -951 51
-626 5 -643 5 -650 -14z"/>
<path d="M1137 2873 c-4 -3 -7 -465 -7 -1025 l0 -1018 234 0 234 0 4 73 c2 39
1 108 -2 152 l-5 80 -70 3 c-38 2 -73 6 -77 10 -8 9 -13 1410 -5 1419 4 3 538
5 1187 4 649 -1 1180 1 1180 4 0 31 -254 275 -307 296 -28 10 -2356 13 -2366
2z"/>
<path d="M4340 2846 c0 -2 24 -50 53 -107 29 -57 64 -131 78 -165 23 -54 32
-65 79 -90 94 -51 198 -204 238 -349 62 -222 47 -486 -35 -665 -57 -122 -150
-228 -237 -268 -39 -19 -67 -25 -216 -53 -49 -10 -317 -12 -1081 -10 -880 2
-1017 1 -1027 -12 -9 -10 -12 -56 -10 -153 l3 -139 975 -3 c1042 -3 1152 0
1331 44 158 38 237 81 344 189 157 156 245 335 280 567 78 516 -131 1004 -492
1151 -98 40 -283 81 -283 63z"/>
<path d="M1739 1648 c-1 -431 -2 -913 -3 -1073 l-1 -290 615 -3 c411 -2 657 1
740 8 331 31 537 95 735 230 80 55 185 147 185 162 0 7 -88 8 -262 6 -252 -5
-266 -6 -333 -31 -173 -63 -423 -87 -910 -86 -198 0 -380 4 -405 7 l-45 7 -5
920 -5 920 -152 3 -153 3 -1 -783z"/>
</g>
</svg>
