<?xml version="1.0" encoding="UTF-8"?>
<svg version="1.1" viewBox="0 0 2048 1681" width="1280" height="1280" xmlns="http://www.w3.org/2000/svg">
<path transform="translate(956,432)" d="m0 0h22l15 4 10 5 9 7 15 15 11 14 9 11 9 10 6 5 6 2h7l52-14 11-2h14l12 2 12 5 11 7 13 12 9 14 5 15 2 13 3 53 3 9 6 5 18 8 34 13 17 9 12 11 7 10 6 14 3 12v23l-4 13-7 14-11 17-15 23-4 9v10l7 14 12 18 11 17 8 16 3 11v23l-3 12-5 12-8 12-8 8-13 8-16 7-39 15-7 4h-2v2h-2l-3 13-3 52-3 16-5 13-10 14-11 10-14 8-16 5-7 1h-11l-18-4-42-11-4-1h-8l-10 5-8 9-11 14-14 17-15 15-12 7-11 4-12 2h-15l-12-2-13-5-10-7-10-9-12-14-11-14-11-13-8-7-6-2h-8l-42 11-16 4-6 1h-11l-16-3-16-8-10-8-8-8-7-11-5-12-3-15-1-18-2-33-2-10-3-6-8-5-27-11-26-10-15-9-7-6-10-14-5-12-3-9-1-5v-20l4-14 8-16 12-18 13-20 4-7 1-11-3-9-15-23-13-20-7-14-4-13v-20l4-16 8-16 9-11 11-8 16-8 46-18 9-6 3-8 2-20 1-29 3-21 6-16 9-12 10-10 14-9 15-5 8-1h14l18 4 41 11 11 1 10-5 7-7 8-10 9-11 13-16 11-11 14-8 12-4zm6 47-7 3-8 7-8 9-10 13-14 17-12 11-21 10-16 3h-9l-20-4-41-11-10-1-10 4-7 7-4 11-3 52-4 19-10 19-12 12-10 6-12 6-39 15-11 6-6 7-2 5v12l4 9 12 19 11 17 8 15 4 12 2 13-1 12-2 12-9 19-15 23-7 11-5 8-3 11 3 12 6 7 14 7 37 14 17 9 12 11 7 9 7 14 4 19 3 53 4 10 7 7 11 4 8-1 49-13 12-2h12l15 3 17 8 10 9 8 7 11 14 14 17 7 8 9 6 11 1 8-3 9-7 8-10 13-16 9-11 9-9 8-6 16-8 8-2 9-1h10l17 3 45 12 8 1 10-4 7-6 3-7 2-9v-11l1-3 1-30 5-24 9-17 15-15 16-9 46-18 10-6 4-6 2-7v-8l-4-10-13-20-11-17-8-16-3-7-2-13v-12l3-16 8-16 7-12 11-17 9-14 3-9v-8l-4-10-7-6-19-8-31-12-17-9-14-14-8-14-3-7-4-19-1-30-1-11-1-12-4-9-8-7-9-3-9 1-42 11-19 4h-9l-13-2-13-5-11-6-13-12-8-9-8-10-11-14-9-10-7-4-3-1z"/>
<path transform="translate(945,584)" d="m0 0h44l27 4 19 5 27 11 21 11 14 10 16 13 24 24 13 17 12 19 8 16 6 14 6 20 4 20 2 13 1 16v14l-2 26-4 22-6 20-6 15-8 17-12 19-10 13-9 10-10 11-8 7-12 10-14 10-15 9-16 8-11 5-19 6-25 5-17 2h-37l-24-3-22-5-20-7-24-12-21-14-14-11-15-14-8-8-9-11-11-15-9-15-8-16-5-12-6-18-5-25-2-17v-37l4-28 5-20 8-21 10-20 11-17 12-16 16-17 7-7 8-7 17-13 18-11 24-11 20-7 18-4zm10 47-26 3-19 6-12 5-30 15-11 9-15 14-12 14-10 13-10 18-7 14-8 27-3 29v13l3 28 9 32 8 16 8 14 13 16 11 13 15 13 13 10 28 15 23 7 11 2 25 2h15l31-3 25-7 19-9 14-8 12-10 11-9 11-11 11-14 8-11 11-20 7-21 5-20 2-21v-21l-2-21-7-26-5-13-12-22-12-16-9-10-7-8-10-9-10-8-25-13-18-8-25-7-22-2z"/>
<path transform="translate(1048,734)" d="m0 0 10 1 10 5 5 7 2 6v11l-5 9-14 15-9 10-15 16-12 13-11 12-12 13-14 15-8 8-12 6-14 3-13-1-11-4-8-5-6-5-7-8-11-12-1-3h-2l-7-8-10-11-5-10v-11l4-8 5-5 8-4 10-1 8 3 10 9 14 15 12 13 7 7h2l7-8 11-12 8-8 7-8 24-26 8-8 1-2h2l2-4 9-9 7-8 8-6z"/>
</svg>
