<?xml version="1.0" encoding="UTF-8"?>
<svg version="1.1" viewBox="0 0 2048 1681" width="1280" height="1280" xmlns="http://www.w3.org/2000/svg">
<path transform="translate(963,241)" d="m0 0h7l12 4 27 13 28 13 38 18 28 13 29 14 28 13 38 18 28 13 40 19 21 10 8 6 5 8 2 7v434l-2 10-6 9-8 6-11 2-281 1-1 62h388l9 4 8 9 3 8v94h111l9 3 8 7 4 6 2 6v274l-3 9-6 8-6 4-6 2-10 1h-263l-11-3-8-6-5-8-2-7v-273l3-9 8-9 10-5h112l-1-62h-353l-1 62h111l9 3 9 8 4 9v279l-4 9-5 6-7 4-13 2h-265l-9-2-8-6-4-5-4-10v-276l3-7 6-8 9-5 3-1h112l-1-62-354-1v63h111l9 3 8 7 4 8 2 8v265l-2 11-6 10-5 4-9 3-9 1h-263l-12-3-10-9-4-9-1-265 1-14 5-10 8-7 8-3h112v-93l3-9 6-7 10-6 388-1 1-62h-284l-8-2-9-6-6-10-1-3v-443l5-10 8-7 26-13 28-13 40-19 64-30 27-13 58-27 22-10 16-8 28-13zm2 56-33 16-28 13-38 18-28 13-27 13-28 13-40 19-28 13-22 10-8 4v389h52l1-349 3-10 6-7 10-5 6-1h408l9 2 9 6 5 9 1 4 1 351h52v-389l-29-14-41-19-74-35-27-13-20-9-74-35-16-7zm-23 200-152 1v25l1 1h350l2-1v-25zm-115 79-37 1v240l1 1h352v-241l-88-1zm-375 526v214h213l1-4-1-210h-43l-1 67-3 7-5 5-4 2-11 1h-85l-9-2-5-4-4-8-1-68zm80 0-1 41 1 3 2 1h50l1-4v-40l-1-1zm328 0-1 25v189h215v-214h-43l-1 62-2 10-5 6-5 3-12 1h-86l-9-3-6-7-1-2-1-70zm80 0v44l3 1h48l1-1v-44zm328 0v214h213l1-1v-212l-1-1h-42l-1 10-1 59-3 6-6 5-2 1-12 1h-85l-7-1-8-7-2-4-1-6-1-64zm81 0v44l1 1h49l2-1v-43l-1-1z" fill="#010101"/>
<path transform="translate(915,370)" d="m0 0h101l7 3 5 4 4 8v7l-5 10-5 4-7 2h-99l-7-3-5-4-3-6-1-9 3-7 4-5z" fill="#010101"/>
</svg>
