<?xml version="1.0" standalone="no"?>
<!DOCTYPE svg PUBLIC "-//W3C//DTD SVG 20010904//EN"
 "http://www.w3.org/TR/2001/REC-SVG-20010904/DTD/svg10.dtd">
<svg version="1.0" xmlns="http://www.w3.org/2000/svg"
 width="480.000000pt" height="270.000000pt" viewBox="0 0 480.000000 270.000000"
 preserveAspectRatio="xMidYMid meet">

<g transform="translate(0.000000,270.000000) scale(0.100000,-0.100000)"
fill="#000000" stroke="none">
<path d="M1570 2448 c0 -2 -1 -68 -2 -148 l-2 -145 110 0 109 0 5 35 5 35 365
-1 c338 0 373 -2 468 -22 130 -28 194 -53 272 -103 177 -114 313 -335 350
-569 12 -81 13 -294 0 -380 -5 -36 -21 -101 -35 -144 -14 -43 -24 -80 -23 -81
4 -3 176 13 213 20 28 5 32 10 48 73 49 193 49 447 -2 648 -55 223 -200 452
-366 580 -103 80 -245 139 -421 175 -102 21 -139 23 -601 27 -271 2 -493 2
-493 0z"/>
<path d="M1140 2058 c-1 -6 -1 -1424 0 -1436 0 -10 37 -12 168 -10 l167 3 0
110 0 110 -34 -3 c-18 -2 -44 -1 -57 2 l-24 6 2 498 3 497 833 3 c457 1 832 6
832 10 0 15 -107 128 -163 170 l-54 42 -836 0 c-461 0 -837 -1 -837 -2z"/>
<path d="M3390 2041 c0 -6 14 -34 31 -62 17 -29 42 -81 56 -116 21 -53 32 -67
63 -83 70 -36 144 -147 175 -266 22 -80 22 -279 0 -359 -22 -82 -75 -173 -130
-224 -99 -91 -113 -93 -975 -97 l-725 -5 -3 -109 -3 -110 668 0 c690 0 836 6
970 41 98 25 151 52 217 111 143 127 226 336 226 569 0 365 -187 646 -465 698
-33 7 -70 14 -82 17 -13 2 -23 0 -23 -5z"/>
<path d="M1569 1743 c0 -5 0 -348 0 -763 l0 -755 468 1 c394 0 486 3 583 18
213 32 377 104 506 222 l59 53 -191 1 c-161 0 -199 -3 -245 -19 -129 -44 -244
-54 -609 -55 l-345 -1 -3 653 -2 652 -110 0 c-61 0 -110 -3 -111 -7z"/>
</g>
</svg>
